<svg id="svg" version="1.1" xmlns="http://www.w3.org/2000/svg" xmlns:xlink="http://www.w3.org/1999/xlink" width="400" height="409.04761904761904" viewBox="0, 0, 400,409.04761904761904"><g id="svgg"><path id="path1" d="M168.200 209.615 C 167.540 209.799,166.190 210.148,165.200 210.392 C 144.863 215.397,137.591 226.781,149.273 235.323 C 150.084 235.915,150.866 236.400,151.012 236.400 C 151.157 236.400,151.754 236.736,152.338 237.146 C 155.624 239.453,172.038 244.295,171.987 242.942 C 171.966 242.374,170.942 241.200,170.468 241.200 C 170.225 241.200,170.120 240.952,170.236 240.649 C 170.372 240.297,170.064 240.002,169.380 239.831 C 168.327 239.567,166.728 238.905,162.400 236.946 C 146.953 229.953,149.128 219.823,167.500 213.195 C 168.875 212.699,170.000 212.143,170.000 211.959 C 170.000 211.775,170.252 211.722,170.560 211.840 C 170.976 211.999,171.120 211.687,171.120 210.627 C 171.120 209.068,170.697 208.922,168.200 209.615 M230.400 209.873 C 230.400 210.295,230.616 210.856,230.880 211.120 C 231.549 211.789,230.380 211.750,224.784 210.920 C 217.658 209.862,216.600 209.924,216.600 211.400 C 216.600 212.595,216.614 212.602,219.673 213.000 C 221.364 213.220,222.879 213.535,223.040 213.700 C 223.201 213.865,223.725 214.000,224.203 214.000 C 227.294 214.000,236.821 218.448,239.458 221.123 C 245.355 227.104,238.718 235.144,225.538 237.985 C 224.582 238.191,222.720 238.628,221.400 238.956 C 215.703 240.374,195.231 241.848,193.100 240.995 C 192.686 240.829,192.400 240.895,192.400 241.157 C 192.400 241.401,192.760 241.600,193.200 241.600 C 193.640 241.600,194.000 241.859,194.000 242.175 C 194.000 243.094,196.918 243.317,205.925 243.087 C 213.706 242.889,217.616 242.500,226.996 240.991 C 230.335 240.453,232.524 240.508,230.900 241.088 C 230.625 241.186,230.400 241.694,230.400 242.215 C 230.400 243.001,230.142 243.206,228.900 243.411 C 228.075 243.546,227.038 243.832,226.595 244.046 C 225.766 244.445,222.386 245.104,215.395 246.227 L 211.391 246.871 211.243 249.135 C 211.162 250.381,211.074 252.240,211.048 253.267 C 211.021 254.293,210.820 255.103,210.600 255.067 C 210.380 255.030,210.175 255.540,210.145 256.200 C 210.031 258.667,210.031 258.665,209.586 258.000 C 209.235 257.475,209.117 257.488,208.648 258.100 C 208.353 258.485,207.637 258.800,207.056 258.800 C 206.475 258.800,206.000 258.957,206.000 259.149 C 206.000 259.569,203.182 260.124,201.100 260.114 C 200.275 260.110,199.600 260.263,199.600 260.453 C 199.600 260.644,198.700 260.800,197.600 260.800 C 196.500 260.800,195.600 260.954,195.600 261.142 C 195.600 261.331,194.115 261.625,192.300 261.797 C 187.866 262.216,187.495 262.264,186.800 262.506 C 186.470 262.621,185.120 262.921,183.800 263.174 C 180.069 263.890,176.239 264.892,175.820 265.263 C 175.611 265.448,175.071 265.606,174.620 265.614 C 171.251 265.672,172.625 267.851,177.600 270.339 C 179.956 271.517,180.800 272.067,180.800 272.422 C 180.800 272.630,181.145 272.800,181.567 272.800 C 181.988 272.800,182.396 272.987,182.472 273.215 C 182.709 273.927,189.219 275.044,193.799 275.158 C 196.207 275.218,198.497 275.438,198.889 275.647 C 199.358 275.898,199.600 275.887,199.600 275.614 C 199.600 275.357,201.152 275.193,203.700 275.183 C 205.955 275.173,208.520 275.008,209.400 274.816 C 213.191 273.989,217.517 272.803,219.000 272.184 C 221.320 271.215,227.765 267.965,228.000 267.646 C 228.110 267.496,229.122 266.790,230.250 266.078 C 231.377 265.365,232.709 264.426,233.211 263.991 C 233.712 263.556,234.254 263.200,234.414 263.200 C 236.418 263.200,247.764 249.636,251.587 242.670 L 253.280 239.586 251.940 239.693 C 250.835 239.781,250.579 239.650,250.478 238.943 C 250.321 237.846,252.273 236.400,253.912 236.400 C 254.905 236.400,255.138 236.208,255.334 235.229 C 255.463 234.586,255.913 233.281,256.335 232.329 C 258.604 227.212,258.800 225.805,257.615 223.128 C 255.321 217.940,245.808 212.440,235.200 210.168 C 233.550 209.815,231.795 209.432,231.300 209.316 C 230.607 209.155,230.400 209.283,230.400 209.873 M249.558 239.749 C 250.182 240.501,249.794 241.313,248.426 242.121 C 247.138 242.882,245.774 243.006,245.398 242.396 C 244.462 240.882,248.412 238.369,249.558 239.749 M244.167 242.243 C 245.796 242.868,243.978 244.884,241.723 244.954 C 239.714 245.016,239.500 243.999,241.281 242.858 C 242.686 241.958,243.162 241.857,244.167 242.243 M239.330 244.962 C 239.589 245.636,238.666 246.484,236.924 247.173 C 235.410 247.771,234.800 247.495,234.800 246.210 C 234.800 244.752,238.824 243.644,239.330 244.962 M233.529 247.112 C 233.742 248.610,229.857 249.934,229.324 248.546 C 228.960 247.599,229.710 246.639,231.043 246.343 C 232.817 245.949,233.388 246.126,233.529 247.112 M227.800 248.800 C 227.800 249.664,227.582 249.830,226.200 250.019 C 223.541 250.382,222.110 249.060,224.100 248.078 C 225.770 247.255,227.800 247.651,227.800 248.800 M222.340 249.374 C 222.540 250.426,221.357 251.200,219.547 251.200 C 217.889 251.200,217.425 250.782,217.793 249.622 C 218.229 248.249,222.087 248.038,222.340 249.374 M216.391 249.584 C 217.212 251.117,216.181 252.000,213.571 252.000 C 211.707 252.000,211.600 251.942,211.600 250.944 C 211.600 249.020,215.497 247.913,216.391 249.584 " stroke="none" fill="#511306" fill-rule="evenodd"></path><path id="path2" d="M181.147 206.987 C 181.044 207.089,179.439 207.364,177.580 207.598 C 173.797 208.073,168.934 209.115,170.260 209.166 C 170.973 209.194,171.120 209.444,171.120 210.627 C 171.120 211.687,170.976 211.999,170.560 211.840 C 170.252 211.722,170.000 211.775,170.000 211.959 C 170.000 212.143,168.875 212.699,167.500 213.195 C 149.128 219.823,146.953 229.953,162.400 236.946 C 166.728 238.905,168.327 239.567,169.380 239.831 C 170.064 240.002,170.372 240.297,170.236 240.649 C 170.120 240.952,170.225 241.200,170.468 241.200 C 170.942 241.200,171.966 242.374,171.987 242.942 C 172.038 244.295,155.624 239.453,152.338 237.146 C 151.754 236.736,151.162 236.400,151.021 236.400 C 149.971 236.400,145.699 232.520,144.635 230.600 C 144.069 229.578,144.013 229.548,144.259 230.400 C 144.417 230.950,144.749 232.173,144.997 233.118 C 145.325 234.370,145.765 235.001,146.622 235.445 C 148.202 236.265,149.200 237.206,149.200 237.875 C 149.200 238.666,148.095 238.977,147.382 238.385 C 145.048 236.448,150.921 246.928,155.236 252.400 C 158.343 256.341,161.204 259.141,167.040 263.956 C 167.282 264.156,168.992 265.245,170.840 266.377 C 172.688 267.510,173.698 268.010,173.083 267.490 L 171.967 266.544 173.002 266.072 C 173.572 265.812,174.353 265.600,174.739 265.600 C 175.124 265.600,175.611 265.448,175.820 265.263 C 176.239 264.892,180.069 263.890,183.800 263.174 C 185.120 262.921,186.470 262.621,186.800 262.506 C 187.495 262.264,187.866 262.216,192.300 261.797 C 194.115 261.625,195.600 261.331,195.600 261.142 C 195.600 260.954,196.500 260.800,197.600 260.800 C 198.700 260.800,199.600 260.644,199.600 260.453 C 199.600 260.263,200.275 260.110,201.100 260.114 C 203.182 260.124,206.000 259.569,206.000 259.149 C 206.000 258.957,206.475 258.800,207.056 258.800 C 207.637 258.800,208.353 258.485,208.648 258.100 C 209.117 257.488,209.235 257.475,209.586 258.000 C 210.031 258.665,210.031 258.667,210.145 256.200 C 210.175 255.540,210.380 255.030,210.600 255.067 C 210.820 255.103,211.021 254.293,211.048 253.267 C 211.074 252.240,211.162 250.381,211.243 249.135 L 211.391 246.871 215.395 246.227 C 222.386 245.104,225.766 244.445,226.595 244.046 C 227.038 243.832,228.075 243.546,228.900 243.411 C 230.142 243.206,230.400 243.001,230.400 242.215 C 230.400 241.694,230.625 241.186,230.900 241.088 C 232.524 240.508,230.335 240.453,226.996 240.991 C 217.616 242.500,213.706 242.889,205.925 243.087 C 196.918 243.317,194.000 243.094,194.000 242.175 C 194.000 241.859,193.640 241.600,193.200 241.600 C 192.760 241.600,192.400 241.408,192.400 241.173 C 192.400 240.916,192.758 240.855,193.300 241.019 C 193.795 241.169,194.290 241.305,194.400 241.321 C 194.510 241.337,198.137 241.207,202.459 241.033 C 212.196 240.640,215.376 240.035,207.200 240.132 L 201.400 240.200 201.291 232.500 C 201.232 228.265,201.043 224.800,200.871 224.800 C 199.786 224.800,199.600 226.019,199.600 233.141 L 199.600 240.522 194.300 240.251 C 170.282 239.026,154.372 229.822,162.327 221.754 C 164.345 219.707,170.261 216.348,172.800 215.806 C 173.570 215.642,174.380 215.374,174.600 215.210 C 174.820 215.047,176.440 214.599,178.200 214.215 C 179.960 213.831,181.625 213.452,181.900 213.371 C 182.635 213.156,182.602 206.800,181.867 206.800 C 181.573 206.800,181.249 206.884,181.147 206.987 M216.795 207.644 C 216.792 208.170,216.692 208.960,216.574 209.400 C 216.381 210.118,216.556 210.201,218.279 210.212 C 219.336 210.218,222.263 210.533,224.784 210.912 C 230.368 211.750,231.551 211.791,230.880 211.120 C 229.275 209.515,230.407 208.947,233.446 209.831 C 234.640 210.178,235.831 210.390,236.094 210.302 C 236.805 210.065,227.896 208.010,224.200 207.558 C 216.257 206.587,216.801 206.580,216.795 207.644 M165.600 210.000 C 165.067 210.345,165.067 210.388,165.600 210.388 C 165.930 210.388,166.470 210.213,166.800 210.000 C 167.333 209.655,167.333 209.612,166.800 209.612 C 166.470 209.612,165.930 209.787,165.600 210.000 M217.607 212.928 C 217.720 213.049,219.696 213.530,221.997 213.999 C 224.298 214.468,226.365 214.999,226.590 215.180 C 226.816 215.360,227.630 215.639,228.400 215.798 C 232.573 216.665,239.249 221.016,240.620 223.761 C 242.957 228.442,237.841 233.566,227.800 236.600 C 225.048 237.432,223.844 238.247,225.951 237.853 C 235.380 236.086,242.992 229.570,241.612 224.446 C 240.591 220.652,229.512 214.000,224.216 214.000 C 223.745 214.000,223.189 213.838,222.980 213.640 C 222.578 213.260,217.253 212.555,217.607 212.928 M146.581 219.300 L 145.000 221.000 146.700 219.419 C 148.281 217.948,148.584 217.600,148.281 217.600 C 148.216 217.600,147.451 218.365,146.581 219.300 M143.314 226.200 C 143.317 227.300,143.395 227.703,143.487 227.095 C 143.579 226.486,143.577 225.586,143.482 225.095 C 143.387 224.603,143.311 225.100,143.314 226.200 M220.600 238.474 C 219.720 238.691,217.650 239.104,216.000 239.393 C 213.919 239.757,213.444 239.931,214.448 239.959 C 216.249 240.010,222.688 238.908,223.557 238.400 C 224.426 237.892,222.798 237.933,220.600 238.474 M152.838 239.627 C 154.939 241.123,154.045 242.581,151.776 241.359 C 150.389 240.612,149.822 239.811,150.222 239.164 C 150.591 238.568,151.602 238.747,152.838 239.627 M248.700 239.612 C 249.195 239.811,249.600 240.190,249.600 240.454 C 249.600 240.718,249.716 240.818,249.857 240.676 C 250.247 240.286,249.191 239.197,248.451 239.225 C 248.010 239.243,248.091 239.368,248.700 239.612 M245.387 241.240 C 245.240 241.706,245.327 242.286,245.584 242.540 C 245.934 242.888,245.982 242.828,245.779 242.295 C 245.631 241.907,245.733 241.322,246.004 240.995 C 246.313 240.623,246.340 240.400,246.076 240.400 C 245.844 240.400,245.534 240.778,245.387 241.240 M248.000 242.036 C 247.336 242.579,247.269 242.715,247.800 242.440 C 249.105 241.766,249.828 241.212,249.400 241.215 C 249.180 241.217,248.550 241.586,248.000 242.036 M157.800 242.362 C 159.063 243.102,159.425 244.511,158.400 244.699 C 157.414 244.879,155.200 243.293,155.200 242.406 C 155.200 241.412,156.151 241.395,157.800 242.362 M162.986 244.674 C 164.674 245.479,164.943 246.800,163.419 246.800 C 161.301 246.800,159.652 245.282,160.667 244.267 C 161.065 243.869,161.433 243.933,162.986 244.674 M169.500 246.905 C 171.037 248.112,168.977 248.904,166.626 248.010 C 165.550 247.601,165.245 246.598,166.100 246.281 C 166.773 246.031,168.880 246.418,169.500 246.905 M175.297 248.260 C 176.240 248.843,175.540 250.000,174.244 250.000 C 172.511 250.000,170.696 248.627,171.600 248.000 C 172.142 247.624,174.540 247.792,175.297 248.260 M181.217 249.020 C 182.025 249.994,180.907 250.881,179.280 250.556 C 178.068 250.314,177.562 249.371,178.267 248.667 C 178.767 248.167,180.701 248.398,181.217 249.020 M221.557 248.729 C 221.896 248.966,222.023 249.470,221.880 250.017 C 221.717 250.638,221.773 250.787,222.060 250.500 C 222.623 249.937,222.339 248.704,221.600 248.503 C 221.101 248.367,221.094 248.405,221.557 248.729 M229.607 248.963 C 229.822 249.180,230.495 249.163,231.283 248.921 L 232.600 248.517 230.924 248.558 C 229.925 248.583,229.393 248.746,229.607 248.963 M187.128 250.305 C 187.244 251.117,187.090 251.200,185.477 251.200 C 183.347 251.200,182.181 250.242,183.307 249.418 C 184.407 248.614,186.971 249.210,187.128 250.305 M212.213 249.444 C 210.046 251.014,213.607 253.125,215.934 251.649 C 216.245 251.452,215.623 251.392,214.441 251.506 C 212.790 251.664,212.365 251.575,212.154 251.023 C 211.770 250.024,212.428 249.599,214.496 249.509 C 215.511 249.465,216.257 249.292,216.153 249.125 C 215.881 248.684,212.933 248.923,212.213 249.444 M192.758 249.966 C 193.797 250.623,192.929 251.600,191.313 251.594 C 189.468 251.586,188.601 251.094,188.929 250.240 C 189.200 249.533,191.783 249.348,192.758 249.966 M198.926 250.551 C 199.254 251.406,198.382 252.000,196.800 252.000 C 195.218 252.000,194.346 251.406,194.674 250.551 C 194.813 250.189,195.543 250.000,196.800 250.000 C 198.057 250.000,198.787 250.189,198.926 250.551 M204.600 251.000 C 204.600 251.659,204.291 251.822,202.846 251.926 C 200.933 252.063,200.155 251.616,200.543 250.605 C 200.944 249.561,204.600 249.917,204.600 251.000 M210.611 250.418 C 211.079 251.175,209.927 252.000,208.400 252.000 C 206.873 252.000,205.721 251.175,206.189 250.418 C 206.331 250.188,207.326 250.000,208.400 250.000 C 209.474 250.000,210.469 250.188,210.611 250.418 " stroke="none" fill="#a52209" fill-rule="evenodd"></path><path id="path3" d="M205.400 133.138 C 205.400 145.309,203.590 154.884,199.794 162.800 C 199.424 163.570,198.751 165.010,198.298 166.000 C 197.845 166.990,197.288 168.160,197.061 168.600 C 195.523 171.581,193.573 175.153,191.602 178.600 C 185.725 188.878,183.039 197.722,182.510 208.536 C 182.368 211.448,182.110 213.319,181.839 213.395 C 181.598 213.462,179.960 213.831,178.200 214.215 C 176.440 214.599,174.820 215.047,174.600 215.210 C 174.380 215.374,173.570 215.642,172.800 215.806 C 170.261 216.348,164.345 219.707,162.327 221.754 C 154.372 229.822,170.282 239.026,194.300 240.251 L 199.600 240.522 199.600 233.141 C 199.600 227.934,199.741 225.619,200.080 225.280 C 200.347 225.013,200.382 224.800,200.160 224.800 C 199.367 224.800,198.800 225.787,198.794 227.180 C 198.784 229.577,198.416 229.737,195.978 228.408 C 194.780 227.755,193.485 227.105,193.100 226.964 C 192.715 226.822,192.400 226.489,192.400 226.223 C 192.400 225.957,191.950 225.317,191.400 224.800 C 190.850 224.283,190.400 223.622,190.400 223.330 C 190.400 223.039,190.220 222.800,190.000 222.800 C 189.780 222.800,189.600 222.181,189.600 221.424 C 189.600 220.667,189.451 219.955,189.270 219.843 C 188.690 219.485,189.573 214.094,190.471 212.514 C 192.222 209.434,197.089 205.789,198.383 206.590 C 198.582 206.713,198.858 206.630,198.996 206.407 C 199.321 205.880,202.800 205.874,202.800 206.400 C 202.800 206.620,203.295 206.813,203.900 206.829 C 204.505 206.845,205.540 207.203,206.200 207.623 C 206.860 208.044,207.808 208.568,208.307 208.787 C 208.806 209.006,209.370 209.594,209.561 210.093 C 209.752 210.592,210.281 211.336,210.736 211.746 C 211.229 212.190,211.674 213.243,211.833 214.346 C 211.981 215.366,212.214 216.380,212.351 216.600 C 212.695 217.153,212.738 220.800,212.401 220.800 C 212.250 220.800,211.923 221.479,211.675 222.308 C 210.921 224.824,205.591 229.858,204.663 228.930 C 204.532 228.799,203.969 228.990,203.412 229.355 L 202.400 230.018 202.400 228.633 C 202.400 227.871,202.220 227.136,202.000 227.000 C 201.780 226.864,201.600 226.223,201.600 225.576 C 201.600 224.929,201.465 224.400,201.300 224.399 C 201.135 224.399,201.090 227.954,201.200 232.299 L 201.400 240.200 203.356 240.324 C 207.626 240.595,222.200 238.739,225.000 237.567 C 225.440 237.383,226.880 236.889,228.200 236.468 C 243.263 231.672,245.460 223.813,233.400 217.865 C 231.420 216.888,229.170 215.958,228.400 215.798 C 227.630 215.639,226.816 215.360,226.590 215.180 C 226.365 214.999,224.295 214.457,221.990 213.975 C 219.686 213.492,217.395 213.009,216.900 212.902 C 215.866 212.678,215.865 212.676,216.407 210.120 C 218.053 202.345,217.769 185.771,215.745 171.600 C 215.416 169.290,214.981 166.140,214.779 164.600 C 214.297 160.914,213.019 154.281,211.503 147.600 C 210.830 144.630,210.059 141.210,209.792 140.000 C 208.984 136.348,206.200 126.927,205.696 126.138 C 205.533 125.884,205.400 129.034,205.400 133.138 " stroke="none" fill="#f9bd1b" fill-rule="evenodd"></path><path id="path4" d="M205.301 138.600 C 205.305 139.480,205.387 139.793,205.483 139.295 C 205.579 138.798,205.575 138.078,205.475 137.695 C 205.375 137.313,205.296 137.720,205.301 138.600 M217.000 206.292 C 217.446 206.737,224.696 207.837,225.023 207.510 C 225.138 207.396,223.919 207.105,222.316 206.865 C 220.712 206.624,218.770 206.307,218.000 206.161 C 217.070 205.984,216.734 206.028,217.000 206.292 M178.200 207.027 L 175.400 207.559 178.000 207.404 C 180.399 207.261,183.844 206.416,181.800 206.473 C 181.360 206.485,179.740 206.734,178.200 207.027 M168.783 208.757 C 163.713 209.958,162.583 210.316,162.889 210.623 C 163.002 210.735,163.882 210.564,164.847 210.244 C 165.811 209.923,168.490 209.270,170.800 208.791 C 173.110 208.313,175.075 207.849,175.167 207.761 C 175.588 207.354,173.007 207.757,168.783 208.757 M227.000 207.845 C 231.893 209.140,238.959 210.775,239.092 210.642 C 239.296 210.438,238.863 210.303,234.000 209.053 C 231.910 208.516,229.300 207.977,228.200 207.855 C 227.100 207.733,226.560 207.728,227.000 207.845 M159.333 211.522 C 158.416 211.895,157.516 212.357,157.333 212.550 C 156.918 212.985,158.462 212.522,160.598 211.570 C 162.639 210.661,161.553 210.620,159.333 211.522 M239.600 210.915 C 239.600 211.013,240.695 211.492,242.033 211.980 C 244.632 212.928,245.820 212.837,243.501 211.868 C 241.940 211.216,239.600 210.644,239.600 210.915 M152.289 214.706 C 146.576 217.788,142.765 222.174,142.693 225.750 C 142.665 227.131,144.821 234.447,145.060 233.785 C 145.143 233.557,144.758 232.040,144.205 230.415 C 141.824 223.414,144.924 218.495,154.500 214.073 C 156.248 213.266,156.847 212.792,156.100 212.806 C 155.935 212.809,154.220 213.664,152.289 214.706 M245.200 212.899 C 245.200 212.983,246.744 213.846,248.631 214.816 C 256.454 218.838,260.146 224.664,257.776 229.247 C 257.432 229.911,257.227 230.667,257.319 230.927 C 257.662 231.900,258.800 228.220,258.800 226.135 C 258.800 222.064,256.215 218.775,250.240 215.246 C 247.208 213.456,245.200 212.520,245.200 212.899 M200.400 224.432 C 199.926 224.764,199.984 224.801,200.673 224.608 C 201.425 224.397,201.569 224.546,201.709 225.682 L 201.872 227.000 201.936 225.500 C 202.002 223.943,201.549 223.628,200.400 224.432 M256.049 233.663 C 255.578 234.797,255.273 235.807,255.373 235.906 C 255.549 236.082,256.431 234.194,256.979 232.465 C 257.495 230.840,256.908 231.596,256.049 233.663 M145.219 235.137 C 145.229 235.282,145.994 235.772,146.918 236.227 C 149.021 237.261,149.482 238.556,147.645 238.266 L 146.420 238.073 146.954 239.336 C 148.080 241.999,149.307 244.419,149.632 244.620 C 149.819 244.735,149.348 243.568,148.586 242.026 C 146.981 238.779,146.914 238.400,147.995 238.683 C 149.474 239.070,149.494 237.591,148.027 236.366 C 146.747 235.297,145.181 234.612,145.219 235.137 M251.705 237.325 C 249.645 238.717,250.411 240.270,252.654 239.248 C 253.971 238.648,253.707 239.575,251.542 243.141 C 250.694 244.538,250.000 245.750,250.000 245.833 C 250.000 246.174,245.870 251.941,244.295 253.800 C 238.619 260.497,231.373 266.247,224.200 269.745 C 219.180 272.193,217.627 272.802,214.200 273.663 C 208.666 275.054,207.899 275.165,203.700 275.183 C 201.152 275.193,199.600 275.357,199.600 275.614 C 199.600 275.887,199.358 275.898,198.889 275.647 C 198.497 275.438,196.207 275.218,193.799 275.158 C 189.219 275.044,182.709 273.927,182.472 273.215 C 182.396 272.987,181.988 272.800,181.567 272.800 C 181.145 272.800,180.800 272.630,180.800 272.422 C 180.800 272.214,180.365 271.809,179.834 271.522 C 179.303 271.235,177.786 270.424,176.462 269.720 C 174.116 268.473,167.919 264.681,167.040 263.956 C 164.016 261.462,162.610 260.232,160.458 258.200 C 157.823 255.712,153.223 250.128,151.626 247.479 C 151.121 246.642,150.626 246.041,150.524 246.142 C 150.201 246.466,152.200 249.367,155.635 253.562 C 158.748 257.364,160.589 259.180,164.800 262.601 C 169.309 266.265,169.317 266.284,167.007 267.737 C 164.571 269.269,164.527 273.600,166.948 273.600 C 167.105 273.600,167.576 273.920,167.996 274.310 C 173.086 279.053,203.231 281.082,219.000 277.743 C 223.723 276.743,228.847 274.929,229.600 273.991 C 229.710 273.854,230.118 273.624,230.506 273.481 C 232.728 272.661,232.062 267.454,229.800 267.963 C 229.262 268.084,229.992 267.431,234.000 264.203 C 242.595 257.281,247.891 250.948,252.985 241.500 C 254.850 238.041,254.848 237.172,252.976 238.587 C 252.010 239.318,251.200 239.363,251.200 238.686 C 251.200 237.869,253.621 236.586,254.001 237.202 C 254.327 237.729,255.200 237.419,255.200 236.776 C 255.200 236.093,253.023 236.434,251.705 237.325 M150.222 239.164 C 149.887 239.706,150.373 240.704,151.109 240.986 C 151.638 241.190,151.621 241.086,151.013 240.415 C 149.975 239.268,150.551 238.933,152.205 239.722 C 153.765 240.466,154.190 241.848,152.742 241.469 C 152.130 241.309,152.008 241.368,152.315 241.675 C 152.869 242.229,154.000 241.802,154.000 241.040 C 154.000 239.824,150.797 238.234,150.222 239.164 M246.677 240.411 C 245.501 241.336,245.279 242.302,246.162 242.641 C 246.942 242.940,249.629 241.135,249.499 240.400 C 249.333 239.469,247.867 239.475,246.677 240.411 M249.200 240.406 C 249.200 241.108,246.670 242.430,246.210 241.969 C 245.930 241.687,246.116 241.314,246.800 240.787 C 247.878 239.958,249.200 239.748,249.200 240.406 M155.200 242.024 C 155.200 242.257,155.389 242.330,155.620 242.188 C 156.113 241.883,158.800 243.072,158.800 243.595 C 158.800 244.345,157.925 244.443,156.948 243.803 C 156.388 243.436,155.834 243.233,155.716 243.351 C 155.598 243.469,156.155 243.878,156.954 244.259 C 159.525 245.484,160.123 243.519,157.568 242.244 C 156.076 241.500,155.200 241.418,155.200 242.024 M242.500 242.434 C 241.211 242.921,241.390 243.222,242.800 242.940 C 244.442 242.612,244.375 243.481,242.704 244.184 C 241.280 244.782,240.629 244.624,240.960 243.760 C 241.078 243.452,241.001 243.200,240.787 243.200 C 240.176 243.200,240.336 244.801,240.972 245.045 C 241.695 245.322,244.267 244.124,244.554 243.375 C 244.853 242.596,243.596 242.020,242.500 242.434 M160.662 244.300 C 160.560 244.465,160.864 244.616,161.338 244.635 C 161.812 244.654,162.560 244.801,163.000 244.962 C 163.505 245.147,163.431 245.029,162.800 244.642 C 161.694 243.963,160.944 243.843,160.662 244.300 M236.100 245.034 C 234.746 245.626,234.377 246.663,235.384 247.049 C 236.221 247.370,238.687 246.473,238.966 245.745 C 239.502 244.348,238.332 244.058,236.100 245.034 M238.329 245.471 C 238.182 246.235,236.002 246.962,235.465 246.425 C 235.261 246.221,235.593 245.811,236.256 245.452 C 237.760 244.637,238.489 244.644,238.329 245.471 M164.000 245.772 C 164.000 246.087,163.595 246.422,163.100 246.518 C 162.328 246.666,162.357 246.699,163.300 246.746 C 164.151 246.788,164.400 246.619,164.400 246.000 C 164.400 245.560,164.310 245.200,164.200 245.200 C 164.090 245.200,164.000 245.457,164.000 245.772 M168.500 246.865 C 169.105 247.086,169.614 247.567,169.632 247.933 C 169.652 248.370,169.734 248.423,169.869 248.087 C 170.168 247.343,169.241 246.395,168.251 246.432 C 167.527 246.458,167.565 246.523,168.500 246.865 M230.334 246.669 C 229.518 246.885,229.039 247.999,229.544 248.504 C 229.748 248.708,230.249 248.789,230.658 248.684 C 231.269 248.527,231.241 248.485,230.500 248.446 C 228.550 248.346,230.359 246.800,232.426 246.800 C 233.482 246.800,233.403 247.544,232.300 247.988 C 231.797 248.190,231.665 248.358,232.000 248.369 C 232.985 248.400,233.733 247.725,233.471 247.040 C 233.234 246.423,231.872 246.262,230.334 246.669 M171.653 247.959 C 170.725 248.547,172.538 250.000,174.200 250.000 C 174.970 250.000,175.600 249.809,175.600 249.576 C 175.600 249.343,175.408 249.271,175.174 249.416 C 174.940 249.561,174.130 249.563,173.374 249.422 C 171.820 249.130,171.518 248.148,172.900 247.882 C 173.676 247.733,173.690 247.702,173.000 247.661 C 172.560 247.634,171.954 247.768,171.653 247.959 M226.996 248.147 C 227.913 248.818,226.835 249.600,224.993 249.600 C 223.687 249.600,223.851 248.736,225.230 248.351 C 225.800 248.192,225.925 248.063,225.533 248.040 C 224.381 247.971,223.600 248.457,223.600 249.243 C 223.600 249.844,223.894 250.000,225.026 250.000 C 227.434 250.000,229.067 248.495,227.367 247.843 C 226.338 247.448,226.197 247.563,226.996 248.147 M178.267 248.667 C 177.716 249.218,178.012 250.400,178.700 250.394 C 179.254 250.389,179.285 250.315,178.849 250.039 C 178.233 249.648,178.574 248.800,179.347 248.800 C 180.686 248.800,181.451 249.924,180.400 250.347 C 179.788 250.593,179.652 250.759,180.051 250.775 C 181.099 250.815,181.803 249.727,181.200 249.000 C 180.697 248.394,178.759 248.174,178.267 248.667 M220.600 248.624 C 220.380 248.682,219.705 248.839,219.100 248.973 C 217.911 249.235,217.536 250.647,218.551 251.037 C 219.612 251.444,221.794 250.596,221.921 249.727 C 222.039 248.927,221.417 248.407,220.600 248.624 M183.307 249.418 C 182.181 250.242,183.347 251.200,185.477 251.200 C 187.090 251.200,187.244 251.117,187.128 250.305 C 186.971 249.210,184.407 248.614,183.307 249.418 M213.600 249.553 C 211.761 249.878,211.576 251.329,213.348 251.531 C 215.133 251.735,216.400 251.280,216.400 250.435 C 216.400 249.851,215.417 248.979,215.067 249.253 C 215.030 249.282,214.370 249.417,213.600 249.553 M221.600 249.800 C 221.600 250.233,221.156 250.400,220.000 250.400 C 217.536 250.400,218.006 249.303,220.500 249.232 C 221.225 249.211,221.600 249.404,221.600 249.800 M186.800 250.200 C 186.800 250.823,185.069 251.032,183.835 250.558 C 182.768 250.149,183.563 249.600,185.224 249.600 C 186.358 249.600,186.800 249.768,186.800 250.200 M188.938 250.217 C 188.808 250.557,188.813 250.947,188.951 251.084 C 189.088 251.221,189.200 251.044,189.200 250.690 C 189.200 250.223,189.668 250.004,190.900 249.893 L 192.600 249.740 190.887 249.670 C 189.666 249.620,189.107 249.777,188.938 250.217 M192.800 250.510 C 192.800 250.977,192.332 251.196,191.100 251.307 L 189.400 251.460 191.113 251.530 C 192.737 251.596,193.773 250.840,193.049 250.116 C 192.912 249.979,192.800 250.156,192.800 250.510 M194.699 250.487 C 194.347 251.402,195.178 252.000,196.800 252.000 C 198.382 252.000,199.254 251.406,198.926 250.551 C 198.624 249.765,198.078 249.869,198.144 250.700 C 198.236 251.855,195.689 251.910,195.264 250.761 C 195.004 250.058,194.885 250.000,194.699 250.487 M200.543 250.605 C 200.155 251.616,200.933 252.063,202.846 251.926 C 204.291 251.822,204.600 251.659,204.600 251.000 C 204.600 249.917,200.944 249.561,200.543 250.605 M206.189 250.418 C 205.721 251.175,206.873 252.000,208.400 252.000 C 209.983 252.000,211.075 251.169,210.569 250.349 C 210.361 250.013,210.169 250.131,209.947 250.732 C 209.705 251.387,209.296 251.600,208.280 251.600 C 206.684 251.600,206.243 251.272,206.852 250.537 C 207.157 250.170,207.163 250.000,206.873 250.000 C 206.639 250.000,206.331 250.188,206.189 250.418 M215.902 250.500 C 215.644 251.285,212.400 251.399,212.400 250.623 C 212.400 250.150,212.840 250.000,214.233 250.000 C 215.521 250.000,216.018 250.149,215.902 250.500 M204.302 251.100 C 204.418 251.451,203.921 251.600,202.633 251.600 C 200.907 251.600,200.428 251.305,201.086 250.648 C 201.544 250.189,204.122 250.552,204.302 251.100 " stroke="none" fill="#959191" fill-rule="evenodd"></path><path id="path0" d="M0.000 204.400 L 0.000 408.800 200.000 408.800 L 400.000 408.800 400.000 204.400 L 400.000 0.000 200.000 0.000 L 0.000 0.000 0.000 204.400 M205.874 126.500 C 206.095 126.995,206.600 128.480,206.995 129.800 C 207.390 131.120,208.118 133.550,208.612 135.200 C 210.415 141.214,214.369 160.048,214.951 165.400 C 215.047 166.280,215.326 168.350,215.571 170.000 C 217.212 181.050,218.027 197.536,217.210 203.185 C 217.005 204.607,216.879 205.812,216.931 205.864 C 217.046 205.979,225.445 207.424,228.200 207.802 C 229.984 208.047,234.850 209.266,240.600 210.910 C 241.700 211.224,243.445 211.868,244.478 212.341 C 245.511 212.813,246.450 213.200,246.566 213.200 C 247.266 213.200,253.831 217.476,255.310 218.896 C 258.924 222.365,259.760 226.279,257.800 230.563 C 257.250 231.765,256.800 232.845,256.800 232.963 C 256.800 234.517,254.260 238.181,253.911 237.132 C 253.707 236.522,251.200 237.960,251.200 238.686 C 251.200 239.363,252.010 239.318,252.976 238.587 C 254.848 237.172,254.850 238.041,252.985 241.500 C 247.891 250.948,242.595 257.281,234.000 264.203 C 229.992 267.431,229.262 268.084,229.800 267.963 C 232.062 267.454,232.728 272.661,230.506 273.481 C 230.118 273.624,229.710 273.854,229.600 273.991 C 228.847 274.929,223.723 276.743,219.000 277.743 C 203.231 281.082,173.086 279.053,167.996 274.310 C 167.576 273.920,167.105 273.600,166.948 273.600 C 164.527 273.600,164.571 269.269,167.007 267.737 C 169.317 266.284,169.309 266.265,164.800 262.601 C 160.033 258.728,157.557 256.153,153.068 250.400 C 151.501 248.391,147.811 241.658,146.754 238.880 C 146.414 237.985,146.460 237.950,147.635 238.208 C 149.490 238.615,149.039 237.276,146.968 236.227 C 144.019 234.732,141.873 226.403,143.496 222.750 C 145.350 218.575,155.111 212.104,161.329 210.928 C 162.028 210.796,162.787 210.542,163.016 210.364 C 163.658 209.866,171.639 208.058,177.183 207.156 C 182.988 206.211,182.800 206.290,182.800 204.797 C 182.800 198.499,186.543 187.426,191.714 178.423 C 193.034 176.125,195.355 171.715,196.872 168.623 C 198.389 165.530,199.784 162.719,199.971 162.376 C 200.423 161.549,202.479 155.357,203.553 151.591 C 205.016 146.458,206.091 130.795,205.233 127.100 C 204.849 125.449,205.240 125.083,205.874 126.500 M198.996 206.407 C 198.858 206.630,198.582 206.713,198.383 206.590 C 197.089 205.789,192.222 209.434,190.471 212.514 C 189.573 214.094,188.690 219.485,189.270 219.843 C 189.451 219.955,189.600 220.667,189.600 221.424 C 189.600 222.181,189.780 222.800,190.000 222.800 C 190.220 222.800,190.400 223.039,190.400 223.330 C 190.400 223.622,190.850 224.283,191.400 224.800 C 191.950 225.317,192.400 225.957,192.400 226.223 C 192.400 226.489,192.715 226.822,193.100 226.964 C 193.485 227.105,194.780 227.755,195.978 228.408 C 198.426 229.743,198.784 229.580,198.794 227.129 C 198.798 226.021,199.060 225.454,199.854 224.829 C 201.593 223.461,201.880 223.727,202.186 226.988 L 202.466 229.975 203.445 229.333 C 203.984 228.980,204.532 228.799,204.663 228.930 C 205.591 229.858,210.921 224.824,211.675 222.308 C 211.923 221.479,212.250 220.800,212.401 220.800 C 212.738 220.800,212.695 217.153,212.351 216.600 C 212.214 216.380,211.981 215.366,211.833 214.346 C 211.674 213.243,211.229 212.190,210.736 211.746 C 210.281 211.336,209.752 210.592,209.561 210.093 C 209.370 209.594,208.806 209.006,208.307 208.787 C 207.808 208.568,206.860 208.044,206.200 207.623 C 205.540 207.203,204.505 206.845,203.900 206.829 C 203.295 206.813,202.800 206.620,202.800 206.400 C 202.800 205.874,199.321 205.880,198.996 206.407 M150.400 239.571 C 150.400 240.083,152.385 241.600,153.054 241.600 C 154.039 241.600,153.625 240.434,152.420 239.810 C 151.073 239.114,150.400 239.034,150.400 239.571 M246.800 240.787 C 246.116 241.314,245.930 241.687,246.210 241.969 C 246.670 242.430,249.200 241.108,249.200 240.406 C 249.200 239.748,247.878 239.958,246.800 240.787 M155.384 242.427 C 155.239 242.661,155.183 242.886,155.260 242.927 C 155.337 242.967,155.985 243.325,156.701 243.723 C 157.938 244.411,158.800 244.362,158.800 243.606 C 158.800 242.769,155.810 241.737,155.384 242.427 M241.700 243.212 C 240.802 243.573,240.528 244.185,241.104 244.541 C 241.556 244.820,244.000 243.705,244.000 243.219 C 244.000 242.717,242.941 242.714,241.700 243.212 M160.617 244.773 C 160.297 245.290,161.984 246.400,163.089 246.400 C 164.453 246.400,164.186 245.428,162.672 244.880 C 161.073 244.302,160.913 244.294,160.617 244.773 M236.256 245.452 C 235.593 245.811,235.261 246.221,235.465 246.425 C 236.002 246.962,238.182 246.235,238.329 245.471 C 238.489 244.644,237.760 244.637,236.256 245.452 M166.267 246.667 C 165.750 247.183,166.013 247.526,167.260 247.961 C 168.944 248.548,169.600 248.514,169.600 247.839 C 169.600 247.051,166.850 246.084,166.267 246.667 M230.500 247.212 C 229.397 247.656,229.318 248.400,230.374 248.400 C 231.503 248.400,233.200 247.685,233.200 247.210 C 233.200 246.714,231.737 246.715,230.500 247.212 M172.000 248.582 C 172.000 249.243,174.470 249.851,175.235 249.379 C 175.591 249.158,175.524 248.934,174.984 248.539 C 173.981 247.805,172.000 247.834,172.000 248.582 M225.230 248.351 C 223.851 248.736,223.687 249.600,224.993 249.600 C 226.308 249.600,227.702 248.889,227.388 248.380 C 227.126 247.957,226.662 247.951,225.230 248.351 M178.572 249.245 C 178.257 249.755,179.081 250.385,180.076 250.394 C 181.104 250.403,181.322 249.693,180.437 249.220 C 179.432 248.682,178.916 248.689,178.572 249.245 M218.900 249.465 C 217.857 249.886,218.463 250.400,220.000 250.400 C 221.156 250.400,221.600 250.233,221.600 249.800 C 221.600 249.208,220.023 249.012,218.900 249.465 M183.426 249.958 C 183.142 250.418,184.143 250.800,185.633 250.800 C 186.404 250.800,186.800 250.596,186.800 250.200 C 186.800 249.530,183.823 249.316,183.426 249.958 M189.200 250.600 C 189.200 251.044,189.667 251.200,191.000 251.200 C 192.333 251.200,192.800 251.044,192.800 250.600 C 192.800 250.156,192.333 250.000,191.000 250.000 C 189.667 250.000,189.200 250.156,189.200 250.600 M195.271 250.674 C 195.374 251.210,195.776 251.400,196.805 251.400 C 198.840 251.400,198.717 250.243,196.666 250.074 C 195.364 249.967,195.152 250.058,195.271 250.674 M206.804 250.595 C 206.405 251.076,206.428 251.236,206.921 251.425 C 208.039 251.854,209.787 251.432,209.926 250.700 C 210.098 249.794,207.540 249.708,206.804 250.595 M212.400 250.623 C 212.400 251.107,212.772 251.219,214.069 251.123 C 216.455 250.947,216.594 250.000,214.233 250.000 C 212.840 250.000,212.400 250.150,212.400 250.623 M201.086 250.648 C 200.428 251.305,200.907 251.600,202.633 251.600 C 203.921 251.600,204.418 251.451,204.302 251.100 C 204.122 250.552,201.544 250.189,201.086 250.648 " stroke="none" fill="#f3f3f3" fill-rule="evenodd"></path><path id="path1" d="M168.200 209.615 C 167.540 209.799,166.190 210.148,165.200 210.392 C 144.863 215.397,137.591 226.781,149.273 235.323 C 150.084 235.915,150.866 236.400,151.012 236.400 C 151.157 236.400,151.754 236.736,152.338 237.146 C 155.624 239.453,172.038 244.295,171.987 242.942 C 171.966 242.374,170.942 241.200,170.468 241.200 C 170.225 241.200,170.120 240.952,170.236 240.649 C 170.372 240.297,170.064 240.002,169.380 239.831 C 168.327 239.567,166.728 238.905,162.400 236.946 C 146.953 229.953,149.128 219.823,167.500 213.195 C 168.875 212.699,170.000 212.143,170.000 211.959 C 170.000 211.775,170.252 211.722,170.560 211.840 C 170.976 211.999,171.120 211.687,171.120 210.627 C 171.120 209.068,170.697 208.922,168.200 209.615 M230.400 209.873 C 230.400 210.295,230.616 210.856,230.880 211.120 C 231.549 211.789,230.380 211.750,224.784 210.920 C 217.658 209.862,216.600 209.924,216.600 211.400 C 216.600 212.595,216.614 212.602,219.673 213.000 C 221.364 213.220,222.879 213.535,223.040 213.700 C 223.201 213.865,223.725 214.000,224.203 214.000 C 227.294 214.000,236.821 218.448,239.458 221.123 C 245.355 227.104,238.718 235.144,225.538 237.985 C 224.582 238.191,222.720 238.628,221.400 238.956 C 215.703 240.374,195.231 241.848,193.100 240.995 C 192.686 240.829,192.400 240.895,192.400 241.157 C 192.400 241.401,192.760 241.600,193.200 241.600 C 193.640 241.600,194.000 241.859,194.000 242.175 C 194.000 243.094,196.918 243.317,205.925 243.087 C 213.706 242.889,217.616 242.500,226.996 240.991 C 230.335 240.453,232.524 240.508,230.900 241.088 C 230.625 241.186,230.400 241.694,230.400 242.215 C 230.400 243.001,230.142 243.206,228.900 243.411 C 228.075 243.546,227.038 243.832,226.595 244.046 C 225.766 244.445,222.386 245.104,215.395 246.227 L 211.391 246.871 211.243 249.135 C 211.162 250.381,211.074 252.240,211.048 253.267 C 211.021 254.293,210.820 255.103,210.600 255.067 C 210.380 255.030,210.175 255.540,210.145 256.200 C 210.031 258.667,210.031 258.665,209.586 258.000 C 209.235 257.475,209.117 257.488,208.648 258.100 C 208.353 258.485,207.637 258.800,207.056 258.800 C 206.475 258.800,206.000 258.957,206.000 259.149 C 206.000 259.569,203.182 260.124,201.100 260.114 C 200.275 260.110,199.600 260.263,199.600 260.453 C 199.600 260.644,198.700 260.800,197.600 260.800 C 196.500 260.800,195.600 260.954,195.600 261.142 C 195.600 261.331,194.115 261.625,192.300 261.797 C 187.866 262.216,187.495 262.264,186.800 262.506 C 186.470 262.621,185.120 262.921,183.800 263.174 C 180.069 263.890,176.239 264.892,175.820 265.263 C 175.611 265.448,175.071 265.606,174.620 265.614 C 171.251 265.672,172.625 267.851,177.600 270.339 C 179.956 271.517,180.800 272.067,180.800 272.422 C 180.800 272.630,181.145 272.800,181.567 272.800 C 181.988 272.800,182.396 272.987,182.472 273.215 C 182.709 273.927,189.219 275.044,193.799 275.158 C 196.207 275.218,198.497 275.438,198.889 275.647 C 199.358 275.898,199.600 275.887,199.600 275.614 C 199.600 275.357,201.152 275.193,203.700 275.183 C 205.955 275.173,208.520 275.008,209.400 274.816 C 213.191 273.989,217.517 272.803,219.000 272.184 C 221.320 271.215,227.765 267.965,228.000 267.646 C 228.110 267.496,229.122 266.790,230.250 266.078 C 231.377 265.365,232.709 264.426,233.211 263.991 C 233.712 263.556,234.254 263.200,234.414 263.200 C 236.418 263.200,247.764 249.636,251.587 242.670 L 253.280 239.586 251.940 239.693 C 250.835 239.781,250.579 239.650,250.478 238.943 C 250.321 237.846,252.273 236.400,253.912 236.400 C 254.905 236.400,255.138 236.208,255.334 235.229 C 255.463 234.586,255.913 233.281,256.335 232.329 C 258.604 227.212,258.800 225.805,257.615 223.128 C 255.321 217.940,245.808 212.440,235.200 210.168 C 233.550 209.815,231.795 209.432,231.300 209.316 C 230.607 209.155,230.400 209.283,230.400 209.873 M249.558 239.749 C 250.182 240.501,249.794 241.313,248.426 242.121 C 247.138 242.882,245.774 243.006,245.398 242.396 C 244.462 240.882,248.412 238.369,249.558 239.749 M244.167 242.243 C 245.796 242.868,243.978 244.884,241.723 244.954 C 239.714 245.016,239.500 243.999,241.281 242.858 C 242.686 241.958,243.162 241.857,244.167 242.243 M239.330 244.962 C 239.589 245.636,238.666 246.484,236.924 247.173 C 235.410 247.771,234.800 247.495,234.800 246.210 C 234.800 244.752,238.824 243.644,239.330 244.962 M233.529 247.112 C 233.742 248.610,229.857 249.934,229.324 248.546 C 228.960 247.599,229.710 246.639,231.043 246.343 C 232.817 245.949,233.388 246.126,233.529 247.112 M227.800 248.800 C 227.800 249.664,227.582 249.830,226.200 250.019 C 223.541 250.382,222.110 249.060,224.100 248.078 C 225.770 247.255,227.800 247.651,227.800 248.800 M222.340 249.374 C 222.540 250.426,221.357 251.200,219.547 251.200 C 217.889 251.200,217.425 250.782,217.793 249.622 C 218.229 248.249,222.087 248.038,222.340 249.374 M216.391 249.584 C 217.212 251.117,216.181 252.000,213.571 252.000 C 211.707 252.000,211.600 251.942,211.600 250.944 C 211.600 249.020,215.497 247.913,216.391 249.584 " stroke="none" fill="#511306" fill-rule="evenodd"></path><path id="path2" d="M181.147 206.987 C 181.044 207.089,179.439 207.364,177.580 207.598 C 173.797 208.073,168.934 209.115,170.260 209.166 C 170.973 209.194,171.120 209.444,171.120 210.627 C 171.120 211.687,170.976 211.999,170.560 211.840 C 170.252 211.722,170.000 211.775,170.000 211.959 C 170.000 212.143,168.875 212.699,167.500 213.195 C 149.128 219.823,146.953 229.953,162.400 236.946 C 166.728 238.905,168.327 239.567,169.380 239.831 C 170.064 240.002,170.372 240.297,170.236 240.649 C 170.120 240.952,170.225 241.200,170.468 241.200 C 170.942 241.200,171.966 242.374,171.987 242.942 C 172.038 244.295,155.624 239.453,152.338 237.146 C 151.754 236.736,151.162 236.400,151.021 236.400 C 149.971 236.400,145.699 232.520,144.635 230.600 C 144.069 229.578,144.013 229.548,144.259 230.400 C 144.417 230.950,144.749 232.173,144.997 233.118 C 145.325 234.370,145.765 235.001,146.622 235.445 C 148.202 236.265,149.200 237.206,149.200 237.875 C 149.200 238.666,148.095 238.977,147.382 238.385 C 145.048 236.448,150.921 246.928,155.236 252.400 C 158.343 256.341,161.204 259.141,167.040 263.956 C 167.282 264.156,168.992 265.245,170.840 266.377 C 172.688 267.510,173.698 268.010,173.083 267.490 L 171.967 266.544 173.002 266.072 C 173.572 265.812,174.353 265.600,174.739 265.600 C 175.124 265.600,175.611 265.448,175.820 265.263 C 176.239 264.892,180.069 263.890,183.800 263.174 C 185.120 262.921,186.470 262.621,186.800 262.506 C 187.495 262.264,187.866 262.216,192.300 261.797 C 194.115 261.625,195.600 261.331,195.600 261.142 C 195.600 260.954,196.500 260.800,197.600 260.800 C 198.700 260.800,199.600 260.644,199.600 260.453 C 199.600 260.263,200.275 260.110,201.100 260.114 C 203.182 260.124,206.000 259.569,206.000 259.149 C 206.000 258.957,206.475 258.800,207.056 258.800 C 207.637 258.800,208.353 258.485,208.648 258.100 C 209.117 257.488,209.235 257.475,209.586 258.000 C 210.031 258.665,210.031 258.667,210.145 256.200 C 210.175 255.540,210.380 255.030,210.600 255.067 C 210.820 255.103,211.021 254.293,211.048 253.267 C 211.074 252.240,211.162 250.381,211.243 249.135 L 211.391 246.871 215.395 246.227 C 222.386 245.104,225.766 244.445,226.595 244.046 C 227.038 243.832,228.075 243.546,228.900 243.411 C 230.142 243.206,230.400 243.001,230.400 242.215 C 230.400 241.694,230.625 241.186,230.900 241.088 C 232.524 240.508,230.335 240.453,226.996 240.991 C 217.616 242.500,213.706 242.889,205.925 243.087 C 196.918 243.317,194.000 243.094,194.000 242.175 C 194.000 241.859,193.640 241.600,193.200 241.600 C 192.760 241.600,192.400 241.408,192.400 241.173 C 192.400 240.916,192.758 240.855,193.300 241.019 C 193.795 241.169,194.290 241.305,194.400 241.321 C 194.510 241.337,198.137 241.207,202.459 241.033 C 212.196 240.640,215.376 240.035,207.200 240.132 L 201.400 240.200 201.291 232.500 C 201.232 228.265,201.043 224.800,200.871 224.800 C 199.786 224.800,199.600 226.019,199.600 233.141 L 199.600 240.522 194.300 240.251 C 170.282 239.026,154.372 229.822,162.327 221.754 C 164.345 219.707,170.261 216.348,172.800 215.806 C 173.570 215.642,174.380 215.374,174.600 215.210 C 174.820 215.047,176.440 214.599,178.200 214.215 C 179.960 213.831,181.625 213.452,181.900 213.371 C 182.635 213.156,182.602 206.800,181.867 206.800 C 181.573 206.800,181.249 206.884,181.147 206.987 M216.795 207.644 C 216.792 208.170,216.692 208.960,216.574 209.400 C 216.381 210.118,216.556 210.201,218.279 210.212 C 219.336 210.218,222.263 210.533,224.784 210.912 C 230.368 211.750,231.551 211.791,230.880 211.120 C 229.275 209.515,230.407 208.947,233.446 209.831 C 234.640 210.178,235.831 210.390,236.094 210.302 C 236.805 210.065,227.896 208.010,224.200 207.558 C 216.257 206.587,216.801 206.580,216.795 207.644 M165.600 210.000 C 165.067 210.345,165.067 210.388,165.600 210.388 C 165.930 210.388,166.470 210.213,166.800 210.000 C 167.333 209.655,167.333 209.612,166.800 209.612 C 166.470 209.612,165.930 209.787,165.600 210.000 M217.607 212.928 C 217.720 213.049,219.696 213.530,221.997 213.999 C 224.298 214.468,226.365 214.999,226.590 215.180 C 226.816 215.360,227.630 215.639,228.400 215.798 C 232.573 216.665,239.249 221.016,240.620 223.761 C 242.957 228.442,237.841 233.566,227.800 236.600 C 225.048 237.432,223.844 238.247,225.951 237.853 C 235.380 236.086,242.992 229.570,241.612 224.446 C 240.591 220.652,229.512 214.000,224.216 214.000 C 223.745 214.000,223.189 213.838,222.980 213.640 C 222.578 213.260,217.253 212.555,217.607 212.928 M146.581 219.300 L 145.000 221.000 146.700 219.419 C 148.281 217.948,148.584 217.600,148.281 217.600 C 148.216 217.600,147.451 218.365,146.581 219.300 M143.314 226.200 C 143.317 227.300,143.395 227.703,143.487 227.095 C 143.579 226.486,143.577 225.586,143.482 225.095 C 143.387 224.603,143.311 225.100,143.314 226.200 M220.600 238.474 C 219.720 238.691,217.650 239.104,216.000 239.393 C 213.919 239.757,213.444 239.931,214.448 239.959 C 216.249 240.010,222.688 238.908,223.557 238.400 C 224.426 237.892,222.798 237.933,220.600 238.474 M152.838 239.627 C 154.939 241.123,154.045 242.581,151.776 241.359 C 150.389 240.612,149.822 239.811,150.222 239.164 C 150.591 238.568,151.602 238.747,152.838 239.627 M248.700 239.612 C 249.195 239.811,249.600 240.190,249.600 240.454 C 249.600 240.718,249.716 240.818,249.857 240.676 C 250.247 240.286,249.191 239.197,248.451 239.225 C 248.010 239.243,248.091 239.368,248.700 239.612 M245.387 241.240 C 245.240 241.706,245.327 242.286,245.584 242.540 C 245.934 242.888,245.982 242.828,245.779 242.295 C 245.631 241.907,245.733 241.322,246.004 240.995 C 246.313 240.623,246.340 240.400,246.076 240.400 C 245.844 240.400,245.534 240.778,245.387 241.240 M248.000 242.036 C 247.336 242.579,247.269 242.715,247.800 242.440 C 249.105 241.766,249.828 241.212,249.400 241.215 C 249.180 241.217,248.550 241.586,248.000 242.036 M157.800 242.362 C 159.063 243.102,159.425 244.511,158.400 244.699 C 157.414 244.879,155.200 243.293,155.200 242.406 C 155.200 241.412,156.151 241.395,157.800 242.362 M162.986 244.674 C 164.674 245.479,164.943 246.800,163.419 246.800 C 161.301 246.800,159.652 245.282,160.667 244.267 C 161.065 243.869,161.433 243.933,162.986 244.674 M169.500 246.905 C 171.037 248.112,168.977 248.904,166.626 248.010 C 165.550 247.601,165.245 246.598,166.100 246.281 C 166.773 246.031,168.880 246.418,169.500 246.905 M175.297 248.260 C 176.240 248.843,175.540 250.000,174.244 250.000 C 172.511 250.000,170.696 248.627,171.600 248.000 C 172.142 247.624,174.540 247.792,175.297 248.260 M181.217 249.020 C 182.025 249.994,180.907 250.881,179.280 250.556 C 178.068 250.314,177.562 249.371,178.267 248.667 C 178.767 248.167,180.701 248.398,181.217 249.020 M221.557 248.729 C 221.896 248.966,222.023 249.470,221.880 250.017 C 221.717 250.638,221.773 250.787,222.060 250.500 C 222.623 249.937,222.339 248.704,221.600 248.503 C 221.101 248.367,221.094 248.405,221.557 248.729 M229.607 248.963 C 229.822 249.180,230.495 249.163,231.283 248.921 L 232.600 248.517 230.924 248.558 C 229.925 248.583,229.393 248.746,229.607 248.963 M187.128 250.305 C 187.244 251.117,187.090 251.200,185.477 251.200 C 183.347 251.200,182.181 250.242,183.307 249.418 C 184.407 248.614,186.971 249.210,187.128 250.305 M212.213 249.444 C 210.046 251.014,213.607 253.125,215.934 251.649 C 216.245 251.452,215.623 251.392,214.441 251.506 C 212.790 251.664,212.365 251.575,212.154 251.023 C 211.770 250.024,212.428 249.599,214.496 249.509 C 215.511 249.465,216.257 249.292,216.153 249.125 C 215.881 248.684,212.933 248.923,212.213 249.444 M192.758 249.966 C 193.797 250.623,192.929 251.600,191.313 251.594 C 189.468 251.586,188.601 251.094,188.929 250.240 C 189.200 249.533,191.783 249.348,192.758 249.966 M198.926 250.551 C 199.254 251.406,198.382 252.000,196.800 252.000 C 195.218 252.000,194.346 251.406,194.674 250.551 C 194.813 250.189,195.543 250.000,196.800 250.000 C 198.057 250.000,198.787 250.189,198.926 250.551 M204.600 251.000 C 204.600 251.659,204.291 251.822,202.846 251.926 C 200.933 252.063,200.155 251.616,200.543 250.605 C 200.944 249.561,204.600 249.917,204.600 251.000 M210.611 250.418 C 211.079 251.175,209.927 252.000,208.400 252.000 C 206.873 252.000,205.721 251.175,206.189 250.418 C 206.331 250.188,207.326 250.000,208.400 250.000 C 209.474 250.000,210.469 250.188,210.611 250.418 " stroke="none" fill="#a52209" fill-rule="evenodd"></path><path id="path3" d="M205.400 133.138 C 205.400 145.309,203.590 154.884,199.794 162.800 C 199.424 163.570,198.751 165.010,198.298 166.000 C 197.845 166.990,197.288 168.160,197.061 168.600 C 195.523 171.581,193.573 175.153,191.602 178.600 C 185.725 188.878,183.039 197.722,182.510 208.536 C 182.368 211.448,182.110 213.319,181.839 213.395 C 181.598 213.462,179.960 213.831,178.200 214.215 C 176.440 214.599,174.820 215.047,174.600 215.210 C 174.380 215.374,173.570 215.642,172.800 215.806 C 170.261 216.348,164.345 219.707,162.327 221.754 C 154.372 229.822,170.282 239.026,194.300 240.251 L 199.600 240.522 199.600 233.141 C 199.600 227.934,199.741 225.619,200.080 225.280 C 200.347 225.013,200.382 224.800,200.160 224.800 C 199.367 224.800,198.800 225.787,198.794 227.180 C 198.784 229.577,198.416 229.737,195.978 228.408 C 194.780 227.755,193.485 227.105,193.100 226.964 C 192.715 226.822,192.400 226.489,192.400 226.223 C 192.400 225.957,191.950 225.317,191.400 224.800 C 190.850 224.283,190.400 223.622,190.400 223.330 C 190.400 223.039,190.220 222.800,190.000 222.800 C 189.780 222.800,189.600 222.181,189.600 221.424 C 189.600 220.667,189.451 219.955,189.270 219.843 C 188.690 219.485,189.573 214.094,190.471 212.514 C 192.222 209.434,197.089 205.789,198.383 206.590 C 198.582 206.713,198.858 206.630,198.996 206.407 C 199.321 205.880,202.800 205.874,202.800 206.400 C 202.800 206.620,203.295 206.813,203.900 206.829 C 204.505 206.845,205.540 207.203,206.200 207.623 C 206.860 208.044,207.808 208.568,208.307 208.787 C 208.806 209.006,209.370 209.594,209.561 210.093 C 209.752 210.592,210.281 211.336,210.736 211.746 C 211.229 212.190,211.674 213.243,211.833 214.346 C 211.981 215.366,212.214 216.380,212.351 216.600 C 212.695 217.153,212.738 220.800,212.401 220.800 C 212.250 220.800,211.923 221.479,211.675 222.308 C 210.921 224.824,205.591 229.858,204.663 228.930 C 204.532 228.799,203.969 228.990,203.412 229.355 L 202.400 230.018 202.400 228.633 C 202.400 227.871,202.220 227.136,202.000 227.000 C 201.780 226.864,201.600 226.223,201.600 225.576 C 201.600 224.929,201.465 224.400,201.300 224.399 C 201.135 224.399,201.090 227.954,201.200 232.299 L 201.400 240.200 203.356 240.324 C 207.626 240.595,222.200 238.739,225.000 237.567 C 225.440 237.383,226.880 236.889,228.200 236.468 C 243.263 231.672,245.460 223.813,233.400 217.865 C 231.420 216.888,229.170 215.958,228.400 215.798 C 227.630 215.639,226.816 215.360,226.590 215.180 C 226.365 214.999,224.295 214.457,221.990 213.975 C 219.686 213.492,217.395 213.009,216.900 212.902 C 215.866 212.678,215.865 212.676,216.407 210.120 C 218.053 202.345,217.769 185.771,215.745 171.600 C 215.416 169.290,214.981 166.140,214.779 164.600 C 214.297 160.914,213.019 154.281,211.503 147.600 C 210.830 144.630,210.059 141.210,209.792 140.000 C 208.984 136.348,206.200 126.927,205.696 126.138 C 205.533 125.884,205.400 129.034,205.400 133.138 " stroke="none" fill="#f9bd1b" fill-rule="evenodd"></path><path id="path4" d="M205.301 138.600 C 205.305 139.480,205.387 139.793,205.483 139.295 C 205.579 138.798,205.575 138.078,205.475 137.695 C 205.375 137.313,205.296 137.720,205.301 138.600 M217.000 206.292 C 217.446 206.737,224.696 207.837,225.023 207.510 C 225.138 207.396,223.919 207.105,222.316 206.865 C 220.712 206.624,218.770 206.307,218.000 206.161 C 217.070 205.984,216.734 206.028,217.000 206.292 M178.200 207.027 L 175.400 207.559 178.000 207.404 C 180.399 207.261,183.844 206.416,181.800 206.473 C 181.360 206.485,179.740 206.734,178.200 207.027 M168.783 208.757 C 163.713 209.958,162.583 210.316,162.889 210.623 C 163.002 210.735,163.882 210.564,164.847 210.244 C 165.811 209.923,168.490 209.270,170.800 208.791 C 173.110 208.313,175.075 207.849,175.167 207.761 C 175.588 207.354,173.007 207.757,168.783 208.757 M227.000 207.845 C 231.893 209.140,238.959 210.775,239.092 210.642 C 239.296 210.438,238.863 210.303,234.000 209.053 C 231.910 208.516,229.300 207.977,228.200 207.855 C 227.100 207.733,226.560 207.728,227.000 207.845 M159.333 211.522 C 158.416 211.895,157.516 212.357,157.333 212.550 C 156.918 212.985,158.462 212.522,160.598 211.570 C 162.639 210.661,161.553 210.620,159.333 211.522 M239.600 210.915 C 239.600 211.013,240.695 211.492,242.033 211.980 C 244.632 212.928,245.820 212.837,243.501 211.868 C 241.940 211.216,239.600 210.644,239.600 210.915 M152.289 214.706 C 146.576 217.788,142.765 222.174,142.693 225.750 C 142.665 227.131,144.821 234.447,145.060 233.785 C 145.143 233.557,144.758 232.040,144.205 230.415 C 141.824 223.414,144.924 218.495,154.500 214.073 C 156.248 213.266,156.847 212.792,156.100 212.806 C 155.935 212.809,154.220 213.664,152.289 214.706 M245.200 212.899 C 245.200 212.983,246.744 213.846,248.631 214.816 C 256.454 218.838,260.146 224.664,257.776 229.247 C 257.432 229.911,257.227 230.667,257.319 230.927 C 257.662 231.900,258.800 228.220,258.800 226.135 C 258.800 222.064,256.215 218.775,250.240 215.246 C 247.208 213.456,245.200 212.520,245.200 212.899 M200.400 224.432 C 199.926 224.764,199.984 224.801,200.673 224.608 C 201.425 224.397,201.569 224.546,201.709 225.682 L 201.872 227.000 201.936 225.500 C 202.002 223.943,201.549 223.628,200.400 224.432 M256.049 233.663 C 255.578 234.797,255.273 235.807,255.373 235.906 C 255.549 236.082,256.431 234.194,256.979 232.465 C 257.495 230.840,256.908 231.596,256.049 233.663 M145.219 235.137 C 145.229 235.282,145.994 235.772,146.918 236.227 C 149.021 237.261,149.482 238.556,147.645 238.266 L 146.420 238.073 146.954 239.336 C 148.080 241.999,149.307 244.419,149.632 244.620 C 149.819 244.735,149.348 243.568,148.586 242.026 C 146.981 238.779,146.914 238.400,147.995 238.683 C 149.474 239.070,149.494 237.591,148.027 236.366 C 146.747 235.297,145.181 234.612,145.219 235.137 M251.705 237.325 C 249.645 238.717,250.411 240.270,252.654 239.248 C 253.971 238.648,253.707 239.575,251.542 243.141 C 250.694 244.538,250.000 245.750,250.000 245.833 C 250.000 246.174,245.870 251.941,244.295 253.800 C 238.619 260.497,231.373 266.247,224.200 269.745 C 219.180 272.193,217.627 272.802,214.200 273.663 C 208.666 275.054,207.899 275.165,203.700 275.183 C 201.152 275.193,199.600 275.357,199.600 275.614 C 199.600 275.887,199.358 275.898,198.889 275.647 C 198.497 275.438,196.207 275.218,193.799 275.158 C 189.219 275.044,182.709 273.927,182.472 273.215 C 182.396 272.987,181.988 272.800,181.567 272.800 C 181.145 272.800,180.800 272.630,180.800 272.422 C 180.800 272.214,180.365 271.809,179.834 271.522 C 179.303 271.235,177.786 270.424,176.462 269.720 C 174.116 268.473,167.919 264.681,167.040 263.956 C 164.016 261.462,162.610 260.232,160.458 258.200 C 157.823 255.712,153.223 250.128,151.626 247.479 C 151.121 246.642,150.626 246.041,150.524 246.142 C 150.201 246.466,152.200 249.367,155.635 253.562 C 158.748 257.364,160.589 259.180,164.800 262.601 C 169.309 266.265,169.317 266.284,167.007 267.737 C 164.571 269.269,164.527 273.600,166.948 273.600 C 167.105 273.600,167.576 273.920,167.996 274.310 C 173.086 279.053,203.231 281.082,219.000 277.743 C 223.723 276.743,228.847 274.929,229.600 273.991 C 229.710 273.854,230.118 273.624,230.506 273.481 C 232.728 272.661,232.062 267.454,229.800 267.963 C 229.262 268.084,229.992 267.431,234.000 264.203 C 242.595 257.281,247.891 250.948,252.985 241.500 C 254.850 238.041,254.848 237.172,252.976 238.587 C 252.010 239.318,251.200 239.363,251.200 238.686 C 251.200 237.869,253.621 236.586,254.001 237.202 C 254.327 237.729,255.200 237.419,255.200 236.776 C 255.200 236.093,253.023 236.434,251.705 237.325 M150.222 239.164 C 149.887 239.706,150.373 240.704,151.109 240.986 C 151.638 241.190,151.621 241.086,151.013 240.415 C 149.975 239.268,150.551 238.933,152.205 239.722 C 153.765 240.466,154.190 241.848,152.742 241.469 C 152.130 241.309,152.008 241.368,152.315 241.675 C 152.869 242.229,154.000 241.802,154.000 241.040 C 154.000 239.824,150.797 238.234,150.222 239.164 M246.677 240.411 C 245.501 241.336,245.279 242.302,246.162 242.641 C 246.942 242.940,249.629 241.135,249.499 240.400 C 249.333 239.469,247.867 239.475,246.677 240.411 M249.200 240.406 C 249.200 241.108,246.670 242.430,246.210 241.969 C 245.930 241.687,246.116 241.314,246.800 240.787 C 247.878 239.958,249.200 239.748,249.200 240.406 M155.200 242.024 C 155.200 242.257,155.389 242.330,155.620 242.188 C 156.113 241.883,158.800 243.072,158.800 243.595 C 158.800 244.345,157.925 244.443,156.948 243.803 C 156.388 243.436,155.834 243.233,155.716 243.351 C 155.598 243.469,156.155 243.878,156.954 244.259 C 159.525 245.484,160.123 243.519,157.568 242.244 C 156.076 241.500,155.200 241.418,155.200 242.024 M242.500 242.434 C 241.211 242.921,241.390 243.222,242.800 242.940 C 244.442 242.612,244.375 243.481,242.704 244.184 C 241.280 244.782,240.629 244.624,240.960 243.760 C 241.078 243.452,241.001 243.200,240.787 243.200 C 240.176 243.200,240.336 244.801,240.972 245.045 C 241.695 245.322,244.267 244.124,244.554 243.375 C 244.853 242.596,243.596 242.020,242.500 242.434 M160.662 244.300 C 160.560 244.465,160.864 244.616,161.338 244.635 C 161.812 244.654,162.560 244.801,163.000 244.962 C 163.505 245.147,163.431 245.029,162.800 244.642 C 161.694 243.963,160.944 243.843,160.662 244.300 M236.100 245.034 C 234.746 245.626,234.377 246.663,235.384 247.049 C 236.221 247.370,238.687 246.473,238.966 245.745 C 239.502 244.348,238.332 244.058,236.100 245.034 M238.329 245.471 C 238.182 246.235,236.002 246.962,235.465 246.425 C 235.261 246.221,235.593 245.811,236.256 245.452 C 237.760 244.637,238.489 244.644,238.329 245.471 M164.000 245.772 C 164.000 246.087,163.595 246.422,163.100 246.518 C 162.328 246.666,162.357 246.699,163.300 246.746 C 164.151 246.788,164.400 246.619,164.400 246.000 C 164.400 245.560,164.310 245.200,164.200 245.200 C 164.090 245.200,164.000 245.457,164.000 245.772 M168.500 246.865 C 169.105 247.086,169.614 247.567,169.632 247.933 C 169.652 248.370,169.734 248.423,169.869 248.087 C 170.168 247.343,169.241 246.395,168.251 246.432 C 167.527 246.458,167.565 246.523,168.500 246.865 M230.334 246.669 C 229.518 246.885,229.039 247.999,229.544 248.504 C 229.748 248.708,230.249 248.789,230.658 248.684 C 231.269 248.527,231.241 248.485,230.500 248.446 C 228.550 248.346,230.359 246.800,232.426 246.800 C 233.482 246.800,233.403 247.544,232.300 247.988 C 231.797 248.190,231.665 248.358,232.000 248.369 C 232.985 248.400,233.733 247.725,233.471 247.040 C 233.234 246.423,231.872 246.262,230.334 246.669 M171.653 247.959 C 170.725 248.547,172.538 250.000,174.200 250.000 C 174.970 250.000,175.600 249.809,175.600 249.576 C 175.600 249.343,175.408 249.271,175.174 249.416 C 174.940 249.561,174.130 249.563,173.374 249.422 C 171.820 249.130,171.518 248.148,172.900 247.882 C 173.676 247.733,173.690 247.702,173.000 247.661 C 172.560 247.634,171.954 247.768,171.653 247.959 M226.996 248.147 C 227.913 248.818,226.835 249.600,224.993 249.600 C 223.687 249.600,223.851 248.736,225.230 248.351 C 225.800 248.192,225.925 248.063,225.533 248.040 C 224.381 247.971,223.600 248.457,223.600 249.243 C 223.600 249.844,223.894 250.000,225.026 250.000 C 227.434 250.000,229.067 248.495,227.367 247.843 C 226.338 247.448,226.197 247.563,226.996 248.147 M178.267 248.667 C 177.716 249.218,178.012 250.400,178.700 250.394 C 179.254 250.389,179.285 250.315,178.849 250.039 C 178.233 249.648,178.574 248.800,179.347 248.800 C 180.686 248.800,181.451 249.924,180.400 250.347 C 179.788 250.593,179.652 250.759,180.051 250.775 C 181.099 250.815,181.803 249.727,181.200 249.000 C 180.697 248.394,178.759 248.174,178.267 248.667 M220.600 248.624 C 220.380 248.682,219.705 248.839,219.100 248.973 C 217.911 249.235,217.536 250.647,218.551 251.037 C 219.612 251.444,221.794 250.596,221.921 249.727 C 222.039 248.927,221.417 248.407,220.600 248.624 M183.307 249.418 C 182.181 250.242,183.347 251.200,185.477 251.200 C 187.090 251.200,187.244 251.117,187.128 250.305 C 186.971 249.210,184.407 248.614,183.307 249.418 M213.600 249.553 C 211.761 249.878,211.576 251.329,213.348 251.531 C 215.133 251.735,216.400 251.280,216.400 250.435 C 216.400 249.851,215.417 248.979,215.067 249.253 C 215.030 249.282,214.370 249.417,213.600 249.553 M221.600 249.800 C 221.600 250.233,221.156 250.400,220.000 250.400 C 217.536 250.400,218.006 249.303,220.500 249.232 C 221.225 249.211,221.600 249.404,221.600 249.800 M186.800 250.200 C 186.800 250.823,185.069 251.032,183.835 250.558 C 182.768 250.149,183.563 249.600,185.224 249.600 C 186.358 249.600,186.800 249.768,186.800 250.200 M188.938 250.217 C 188.808 250.557,188.813 250.947,188.951 251.084 C 189.088 251.221,189.200 251.044,189.200 250.690 C 189.200 250.223,189.668 250.004,190.900 249.893 L 192.600 249.740 190.887 249.670 C 189.666 249.620,189.107 249.777,188.938 250.217 M192.800 250.510 C 192.800 250.977,192.332 251.196,191.100 251.307 L 189.400 251.460 191.113 251.530 C 192.737 251.596,193.773 250.840,193.049 250.116 C 192.912 249.979,192.800 250.156,192.800 250.510 M194.699 250.487 C 194.347 251.402,195.178 252.000,196.800 252.000 C 198.382 252.000,199.254 251.406,198.926 250.551 C 198.624 249.765,198.078 249.869,198.144 250.700 C 198.236 251.855,195.689 251.910,195.264 250.761 C 195.004 250.058,194.885 250.000,194.699 250.487 M200.543 250.605 C 200.155 251.616,200.933 252.063,202.846 251.926 C 204.291 251.822,204.600 251.659,204.600 251.000 C 204.600 249.917,200.944 249.561,200.543 250.605 M206.189 250.418 C 205.721 251.175,206.873 252.000,208.400 252.000 C 209.983 252.000,211.075 251.169,210.569 250.349 C 210.361 250.013,210.169 250.131,209.947 250.732 C 209.705 251.387,209.296 251.600,208.280 251.600 C 206.684 251.600,206.243 251.272,206.852 250.537 C 207.157 250.170,207.163 250.000,206.873 250.000 C 206.639 250.000,206.331 250.188,206.189 250.418 M215.902 250.500 C 215.644 251.285,212.400 251.399,212.400 250.623 C 212.400 250.150,212.840 250.000,214.233 250.000 C 215.521 250.000,216.018 250.149,215.902 250.500 M204.302 251.100 C 204.418 251.451,203.921 251.600,202.633 251.600 C 200.907 251.600,200.428 251.305,201.086 250.648 C 201.544 250.189,204.122 250.552,204.302 251.100 " stroke="none" fill="#959191" fill-rule="evenodd"></path></g></svg>